<svg width="13" height="13" viewBox="0 0 13 13" fill="none" xmlns="http://www.w3.org/2000/svg">
<g clip-path="url(#clip0_1068_191)">
<path d="M4.33444 7.22151C3.81281 6.68472 3.48998 5.95347 3.48998 5.14585C3.48998 3.50026 4.82356 2.16668 6.46915 2.16668C8.11473 2.16668 9.44831 3.50026 9.44831 5.14585C9.44831 5.42805 9.40661 5.69997 9.33348 5.95835H8.0584C7.66948 5.50551 7.10019 5.21247 6.45506 5.21247C5.31919 5.21247 4.40052 6.10243 4.33444 7.22151ZM2.46677 4.44439C2.61519 3.58151 3.03715 2.79501 3.69148 2.1813C4.51969 1.4051 5.60411 1.0216 6.74106 1.09201C8.88227 1.23068 10.5566 3.10647 10.5316 5.35222C10.5214 6.29255 9.73377 7.04114 8.79398 7.04114H7.49073C7.35856 6.5921 6.94798 6.26168 6.45615 6.26168C5.85761 6.26168 5.37281 6.74647 5.37281 7.34501C5.37281 7.94355 5.85761 8.42835 6.45615 8.42835C6.74756 8.42835 7.01136 8.31189 7.20581 8.12447H8.79398C10.3209 8.12447 11.5933 6.90843 11.615 5.38201C11.6551 2.55397 9.53065 0.186887 6.81094 0.0113871C5.36794 -0.0823212 3.99915 0.407887 2.95102 1.39155C2.13906 2.1526 1.59902 3.1601 1.40456 4.24397C1.34552 4.5733 1.60606 4.87555 1.94027 4.87555C2.19594 4.87555 2.42398 4.69735 2.46677 4.44493V4.44439ZM9.02744 9.98076L8.01561 11.4146C7.82331 11.7027 7.40027 11.7027 7.20798 11.4146L6.52873 10.3951L5.84948 11.4146C5.65719 11.7027 5.23415 11.7027 5.04186 11.4146L4.03598 9.90547C3.15956 10.4488 2.47977 11.2748 2.16127 12.2969C2.10981 12.4616 2.13961 12.6409 2.24198 12.7796C2.34436 12.9182 2.50631 13 2.67857 13H10.2619C10.4341 13 10.5961 12.9182 10.6985 12.7796C10.8009 12.6409 10.8306 12.4616 10.7792 12.2969C10.4753 11.3225 9.84427 10.5246 9.02744 9.98076Z" fill="white" fill-opacity="0.8"/>
</g>
<defs>
<clipPath id="clip0_1068_191">
<rect width="13" height="13" fill="white"/>
</clipPath>
</defs>
</svg>
