<svg width="18" height="18" viewBox="0 0 18 18" fill="none" xmlns="http://www.w3.org/2000/svg">
<g clip-path="url(#clip0_1086_653)">
<path d="M9 0C4.03725 0 0 4.03725 0 9C0 13.9628 4.03725 18 9 18C13.9628 18 18 13.9628 18 9C18 4.03725 13.9628 0 9 0ZM9 16.5C4.8645 16.5 1.5 13.1355 1.5 9C1.5 4.8645 4.8645 1.5 9 1.5C13.1355 1.5 16.5 4.8645 16.5 9C16.5 13.1355 13.1355 16.5 9 16.5ZM10.0343 4.78425L5.59875 9.21975C4.89075 9.92775 4.5 10.8698 4.5 11.871V12.75C4.5 13.1648 4.83525 13.5 5.25 13.5H6.129C7.13025 13.5 8.07225 13.1093 8.78025 12.4012L13.2157 7.96575C14.0933 7.08825 14.0933 5.66175 13.2157 4.78425C12.3383 3.90675 10.9117 3.90675 10.0343 4.78425ZM7.71975 11.3407C7.3005 11.76 6.72075 12 6.129 12H6V11.871C6 11.2793 6.24 10.6995 6.65925 10.2802L9.252 7.6875L10.3125 8.748L7.71975 11.3407ZM12.1553 6.90525L11.373 7.6875L10.3125 6.627L11.0948 5.84475C11.388 5.5515 11.862 5.5515 12.1553 5.84475C12.4485 6.138 12.4478 6.61275 12.1553 6.90525Z" fill="black"/>
</g>
<defs>
<clipPath id="clip0_1086_653">
<rect width="18" height="18" fill="white"/>
</clipPath>
</defs>
</svg>
