<svg width="14" height="14" viewBox="0 0 14 14" fill="none" xmlns="http://www.w3.org/2000/svg">
<path d="M11.9583 12.25C10.8325 12.25 9.91667 11.3342 9.91667 10.2083C9.91667 9.0825 10.8325 8.16667 11.9583 8.16667C13.0842 8.16667 14 9.0825 14 10.2083C14 11.3342 13.0842 12.25 11.9583 12.25ZM11.9583 9.33333C11.4759 9.33333 11.0833 9.72592 11.0833 10.2083C11.0833 10.6908 11.4759 11.0833 11.9583 11.0833C12.4407 11.0833 12.8333 10.6908 12.8333 10.2083C12.8333 9.72592 12.4407 9.33333 11.9583 9.33333ZM7 12.25C5.87417 12.25 4.95833 11.3342 4.95833 10.2083C4.95833 9.0825 5.87417 8.16667 7 8.16667C8.12583 8.16667 9.04167 9.0825 9.04167 10.2083C9.04167 11.3342 8.12583 12.25 7 12.25ZM7 9.33333C6.51758 9.33333 6.125 9.72592 6.125 10.2083C6.125 10.6908 6.51758 11.0833 7 11.0833C7.48242 11.0833 7.875 10.6908 7.875 10.2083C7.875 9.72592 7.48242 9.33333 7 9.33333ZM2.04167 12.25C0.915833 12.25 0 11.3342 0 10.2083C0 9.0825 0.915833 8.16667 2.04167 8.16667C3.1675 8.16667 4.08333 9.0825 4.08333 10.2083C4.08333 11.3342 3.1675 12.25 2.04167 12.25ZM2.04167 9.33333C1.55925 9.33333 1.16667 9.72592 1.16667 10.2083C1.16667 10.6908 1.55925 11.0833 2.04167 11.0833C2.52408 11.0833 2.91667 10.6908 2.91667 10.2083C2.91667 9.72592 2.52408 9.33333 2.04167 9.33333ZM11.9583 5.83333C10.8325 5.83333 9.91667 4.9175 9.91667 3.79167C9.91667 2.66583 10.8325 1.75 11.9583 1.75C13.0842 1.75 14 2.66583 14 3.79167C14 4.9175 13.0842 5.83333 11.9583 5.83333ZM11.9583 2.91667C11.4759 2.91667 11.0833 3.30925 11.0833 3.79167C11.0833 4.27408 11.4759 4.66667 11.9583 4.66667C12.4407 4.66667 12.8333 4.27408 12.8333 3.79167C12.8333 3.30925 12.4407 2.91667 11.9583 2.91667ZM7 5.83333C5.87417 5.83333 4.95833 4.9175 4.95833 3.79167C4.95833 2.66583 5.87417 1.75 7 1.75C8.12583 1.75 9.04167 2.66583 9.04167 3.79167C9.04167 4.9175 8.12583 5.83333 7 5.83333ZM7 2.91667C6.51758 2.91667 6.125 3.30925 6.125 3.79167C6.125 4.27408 6.51758 4.66667 7 4.66667C7.48242 4.66667 7.875 4.27408 7.875 3.79167C7.875 3.30925 7.48242 2.91667 7 2.91667ZM2.04167 5.83333C0.915833 5.83333 0 4.9175 0 3.79167C0 2.66583 0.915833 1.75 2.04167 1.75C3.1675 1.75 4.08333 2.66583 4.08333 3.79167C4.08333 4.9175 3.1675 5.83333 2.04167 5.83333ZM2.04167 2.91667C1.55925 2.91667 1.16667 3.30925 1.16667 3.79167C1.16667 4.27408 1.55925 4.66667 2.04167 4.66667C2.52408 4.66667 2.91667 4.27408 2.91667 3.79167C2.91667 3.30925 2.52408 2.91667 2.04167 2.91667Z" fill="#495057"/>
</svg>
