<svg width="13" height="13" viewBox="0 0 13 13" fill="none" xmlns="http://www.w3.org/2000/svg">
<g clip-path="url(#clip0_1068_182)">
<path d="M10.2917 0.541672H2.70833C1.9903 0.542532 1.30193 0.828149 0.794202 1.33587C0.286478 1.8436 0.00086009 2.53197 0 3.25001L0 9.75001C0.00086009 10.468 0.286478 11.1564 0.794202 11.6641C1.30193 12.1719 1.9903 12.4575 2.70833 12.4583H10.2917C11.0097 12.4575 11.6981 12.1719 12.2058 11.6641C12.7135 11.1564 12.9991 10.468 13 9.75001V3.25001C12.9991 2.53197 12.7135 1.8436 12.2058 1.33587C11.6981 0.828149 11.0097 0.542532 10.2917 0.541672ZM2.70833 1.62501H10.2917C10.7226 1.62501 11.136 1.79621 11.4407 2.10096C11.7455 2.4057 11.9167 2.81903 11.9167 3.25001V3.79167H1.08333V3.25001C1.08333 2.81903 1.25454 2.4057 1.55928 2.10096C1.86403 1.79621 2.27736 1.62501 2.70833 1.62501ZM10.2917 11.375H2.70833C2.27736 11.375 1.86403 11.2038 1.55928 10.8991C1.25454 10.5943 1.08333 10.181 1.08333 9.75001V4.87501H11.9167V9.75001C11.9167 10.181 11.7455 10.5943 11.4407 10.8991C11.136 11.2038 10.7226 11.375 10.2917 11.375ZM10.2917 7.04167C10.2917 7.18533 10.2346 7.32311 10.133 7.42469C10.0314 7.52627 9.89366 7.58334 9.75 7.58334H3.25C3.10634 7.58334 2.96857 7.52627 2.86698 7.42469C2.7654 7.32311 2.70833 7.18533 2.70833 7.04167C2.70833 6.89801 2.7654 6.76024 2.86698 6.65866C2.96857 6.55707 3.10634 6.50001 3.25 6.50001H9.75C9.89366 6.50001 10.0314 6.55707 10.133 6.65866C10.2346 6.76024 10.2917 6.89801 10.2917 7.04167ZM8.125 9.20834C8.125 9.352 8.06793 9.48977 7.96635 9.59136C7.86477 9.69294 7.72699 9.75001 7.58333 9.75001H3.25C3.10634 9.75001 2.96857 9.69294 2.86698 9.59136C2.7654 9.48977 2.70833 9.352 2.70833 9.20834C2.70833 9.06468 2.7654 8.9269 2.86698 8.82532C2.96857 8.72374 3.10634 8.66667 3.25 8.66667H7.58333C7.72699 8.66667 7.86477 8.72374 7.96635 8.82532C8.06793 8.9269 8.125 9.06468 8.125 9.20834ZM1.625 2.70834C1.625 2.60121 1.65677 2.49648 1.71629 2.4074C1.77581 2.31833 1.8604 2.2489 1.95938 2.2079C2.05836 2.16691 2.16727 2.15618 2.27234 2.17708C2.37741 2.19798 2.47393 2.24957 2.54968 2.32532C2.62544 2.40108 2.67703 2.49759 2.69793 2.60266C2.71883 2.70774 2.7081 2.81665 2.6671 2.91563C2.6261 3.0146 2.55668 3.0992 2.4676 3.15872C2.37852 3.21824 2.2738 3.25001 2.16667 3.25001C2.02301 3.25001 1.88523 3.19294 1.78365 3.09135C1.68207 2.98977 1.625 2.852 1.625 2.70834ZM3.25 2.70834C3.25 2.60121 3.28177 2.49648 3.34129 2.4074C3.40081 2.31833 3.4854 2.2489 3.58438 2.2079C3.68336 2.16691 3.79227 2.15618 3.89734 2.17708C4.00241 2.19798 4.09893 2.24957 4.17468 2.32532C4.25044 2.40108 4.30203 2.49759 4.32293 2.60266C4.34383 2.70774 4.3331 2.81665 4.2921 2.91563C4.2511 3.0146 4.18168 3.0992 4.0926 3.15872C4.00352 3.21824 3.8988 3.25001 3.79167 3.25001C3.64801 3.25001 3.51023 3.19294 3.40865 3.09135C3.30707 2.98977 3.25 2.852 3.25 2.70834ZM4.875 2.70834C4.875 2.60121 4.90677 2.49648 4.96629 2.4074C5.02581 2.31833 5.1104 2.2489 5.20938 2.2079C5.30836 2.16691 5.41727 2.15618 5.52234 2.17708C5.62741 2.19798 5.72393 2.24957 5.79968 2.32532C5.87544 2.40108 5.92703 2.49759 5.94793 2.60266C5.96883 2.70774 5.9581 2.81665 5.9171 2.91563C5.8761 3.0146 5.80668 3.0992 5.7176 3.15872C5.62852 3.21824 5.5238 3.25001 5.41667 3.25001C5.27301 3.25001 5.13523 3.19294 5.03365 3.09135C4.93207 2.98977 4.875 2.852 4.875 2.70834Z" fill="white" fill-opacity="0.8"/>
</g>
<defs>
<clipPath id="clip0_1068_182">
<rect width="13" height="13" fill="white"/>
</clipPath>
</defs>
</svg>
