<svg width="13" height="13" viewBox="0 0 13 13" fill="none" xmlns="http://www.w3.org/2000/svg">
<path d="M3.79167 3.25H12.4583C12.602 3.25 12.7398 3.19293 12.8414 3.09135C12.9429 2.98976 13 2.85199 13 2.70833C13 2.56467 12.9429 2.4269 12.8414 2.32531C12.7398 2.22373 12.602 2.16666 12.4583 2.16666H3.79167C3.64801 2.16666 3.51023 2.22373 3.40865 2.32531C3.30707 2.4269 3.25 2.56467 3.25 2.70833C3.25 2.85199 3.30707 2.98976 3.40865 3.09135C3.51023 3.19293 3.64801 3.25 3.79167 3.25Z" fill="white" fill-opacity="0.8"/>
<path d="M12.4583 5.95834H3.79167C3.64801 5.95834 3.51023 6.0154 3.40865 6.11699C3.30707 6.21857 3.25 6.35634 3.25 6.5C3.25 6.64366 3.30707 6.78144 3.40865 6.88302C3.51023 6.9846 3.64801 7.04167 3.79167 7.04167H12.4583C12.602 7.04167 12.7398 6.9846 12.8414 6.88302C12.9429 6.78144 13 6.64366 13 6.5C13 6.35634 12.9429 6.21857 12.8414 6.11699C12.7398 6.0154 12.602 5.95834 12.4583 5.95834Z" fill="white" fill-opacity="0.8"/>
<path d="M12.4583 9.75H3.79167C3.64801 9.75 3.51023 9.80707 3.40865 9.90865C3.30707 10.0102 3.25 10.148 3.25 10.2917C3.25 10.4353 3.30707 10.5731 3.40865 10.6747C3.51023 10.7763 3.64801 10.8333 3.79167 10.8333H12.4583C12.602 10.8333 12.7398 10.7763 12.8414 10.6747C12.9429 10.5731 13 10.4353 13 10.2917C13 10.148 12.9429 10.0102 12.8414 9.90865C12.7398 9.80707 12.602 9.75 12.4583 9.75Z" fill="white" fill-opacity="0.8"/>
<path d="M1.08333 3.79167C1.68164 3.79167 2.16667 3.30664 2.16667 2.70833C2.16667 2.11002 1.68164 1.625 1.08333 1.625C0.485025 1.625 0 2.11002 0 2.70833C0 3.30664 0.485025 3.79167 1.08333 3.79167Z" fill="white" fill-opacity="0.8"/>
<path d="M1.08333 7.58333C1.68164 7.58333 2.16667 7.09831 2.16667 6.5C2.16667 5.90169 1.68164 5.41666 1.08333 5.41666C0.485025 5.41666 0 5.90169 0 6.5C0 7.09831 0.485025 7.58333 1.08333 7.58333Z" fill="white" fill-opacity="0.8"/>
<path d="M1.08333 11.375C1.68164 11.375 2.16667 10.89 2.16667 10.2917C2.16667 9.69336 1.68164 9.20834 1.08333 9.20834C0.485025 9.20834 0 9.69336 0 10.2917C0 10.89 0.485025 11.375 1.08333 11.375Z" fill="white" fill-opacity="0.8"/>
</svg>
