<svg width="13" height="13" viewBox="0 0 13 13" fill="none" xmlns="http://www.w3.org/2000/svg">
<g clip-path="url(#clip0_1068_179)">
<path d="M4.875 6.5C6.66738 6.5 8.125 5.04238 8.125 3.25C8.125 1.45763 6.66738 0 4.875 0C3.08263 0 1.625 1.45763 1.625 3.25C1.625 5.04238 3.08263 6.5 4.875 6.5ZM4.875 1.08333C6.06992 1.08333 7.04167 2.05508 7.04167 3.25C7.04167 4.44492 6.06992 5.41667 4.875 5.41667C3.68008 5.41667 2.70833 4.44492 2.70833 3.25C2.70833 2.05508 3.68008 1.08333 4.875 1.08333ZM13 9.75V10.8333H11.6648L10.2245 12.9935L8.5995 9.7435L7.87313 10.8333H5.95833V9.75H7.29354L8.73383 7.58983L10.3588 10.8398L11.0852 9.75H13ZM6.71342 8.66667H2.70833C1.81242 8.66667 1.08333 9.39575 1.08333 10.2917V13H0V10.2917C0 8.79829 1.21496 7.58333 2.70833 7.58333H7.04167C7.16788 7.58333 7.28921 7.60392 7.41108 7.62071L6.71396 8.66667H6.71342Z" fill="white" fill-opacity="0.8"/>
</g>
<defs>
<clipPath id="clip0_1068_179">
<rect width="13" height="13" fill="white"/>
</clipPath>
</defs>
</svg>
