<svg width="23" height="23" viewBox="0 0 23 23" fill="none" xmlns="http://www.w3.org/2000/svg">
<path fill-rule="evenodd" clip-rule="evenodd" d="M11.7622 16.4069C12.7974 16.4069 13.6365 15.5677 13.6365 14.5326C13.6365 13.4923 12.7931 12.6582 11.7622 12.6582C10.7271 12.6582 9.88791 13.4974 9.88791 14.5326C9.88791 15.5677 10.7271 16.4069 11.7622 16.4069ZM17.3852 7.97246C18.4204 7.97246 19.2595 8.81162 19.2595 9.84678V19.2184C19.2595 20.2535 18.4204 21.0927 17.3852 21.0927H6.1393C5.10414 21.0927 4.26498 20.2535 4.26498 19.2184V9.84678C4.26498 8.80653 5.10843 7.97246 6.1393 7.97246H7.07646V6.09814C7.07646 3.51025 9.17436 1.41235 11.7622 1.41235C14.3501 1.41235 16.448 3.51025 16.448 6.09814V7.97246H17.3852ZM11.7622 3.28666C10.2095 3.28666 8.95075 4.5454 8.95075 6.09813V7.97245H14.5737V6.09813C14.5737 4.5454 13.315 3.28666 11.7622 3.28666Z" fill="#74788D"/>
</svg>
