<svg width="76" height="27" viewBox="0 0 76 27" fill="none" xmlns="http://www.w3.org/2000/svg">
<path opacity="0.94" d="M31.9998 20.6621C32.0081 21.577 32.0246 22.6156 32.041 22.9618L32.0658 23.6048L32.7664 23.5636C32.7664 22.6404 32.7582 21.61 32.7499 20.6786L32.7252 18.9888H31.9751L31.9998 20.6621Z" fill="white"/>
<path opacity="0.94" d="M16.4049 19.1454C16.2483 19.2361 16.0422 19.3845 15.9515 19.4751C15.8609 19.574 15.762 19.6565 15.7207 19.6482C15.6878 19.6482 15.6713 19.5246 15.6795 19.3762C15.7043 19.1124 15.7043 19.1124 15.3333 19.1124H14.9624C14.9624 19.6565 14.9706 20.6868 14.9871 21.7501L15.0036 23.6872H15.7455C15.7455 20.8764 15.7702 20.5879 15.8938 20.3406C15.968 20.1675 16.1411 19.9615 16.2813 19.8625C16.4544 19.7389 16.6522 19.6894 16.9572 19.6894C17.3198 19.6894 17.4188 19.7307 17.6413 19.9367C17.7814 20.0769 17.9298 20.3159 17.971 20.4725C18.0205 20.6291 18.0535 21.4204 18.0535 22.22V23.6872H18.7953C18.7953 20.8352 18.82 20.5549 18.9437 20.3077C19.0179 20.151 19.2157 19.9367 19.3723 19.8296C19.5454 19.7224 19.7844 19.6482 19.974 19.6482C20.1389 19.6482 20.3779 19.6977 20.5016 19.7636C20.6335 19.8213 20.8066 19.9779 20.8972 20.1098C21.0456 20.3241 21.0703 20.522 21.1033 21.9974L21.1445 23.646L21.8039 23.6295C21.8451 21.0742 21.8204 20.3983 21.7627 20.184C21.705 20.0027 21.5731 19.7307 21.466 19.5823C21.3588 19.4422 21.1198 19.2443 20.9384 19.1537C20.7241 19.0465 20.4439 18.9888 20.1306 18.9888C19.8092 18.9888 19.5454 19.0465 19.2981 19.1784C19.092 19.2773 18.853 19.4586 18.7623 19.5823L18.5892 19.8131C18.1441 19.3515 17.8886 19.1619 17.7402 19.1042C17.6001 19.0383 17.3034 18.9888 17.089 18.9888C16.8665 18.997 16.5615 19.063 16.4049 19.1454Z" fill="white"/>
<path opacity="0.94" fill-rule="evenodd" clip-rule="evenodd" d="M11.83 18.997C11.9702 18.9888 12.2422 19.0382 12.4483 19.0959C12.6543 19.1536 12.9428 19.2937 13.0994 19.4009C13.2561 19.5163 13.4621 19.7389 13.5693 19.8955C13.6682 20.0521 13.8083 20.39 13.8825 20.6373C13.9567 20.8846 14.0144 21.2308 14.0144 21.7089H12.2422C10.7255 21.7089 10.47 21.7254 10.47 21.8325C10.47 21.8985 10.5112 22.0551 10.5607 22.187C10.6019 22.3106 10.742 22.5167 10.8656 22.6403C10.9893 22.7722 11.1871 22.9288 11.3108 22.9948C11.4426 23.0607 11.7559 23.1102 12.0114 23.1102C12.3411 23.1102 12.6049 23.0525 12.8522 22.9206C13.05 22.8217 13.2313 22.6898 13.2478 22.6403C13.2561 22.5826 13.322 22.5332 13.3715 22.5332C13.4292 22.5332 13.561 22.6156 13.8495 22.9041L13.5775 23.1679C13.4374 23.308 13.1489 23.5058 12.9428 23.5965C12.6873 23.7119 12.3988 23.7696 11.9949 23.7696C11.5663 23.7696 11.3108 23.7201 11.0058 23.58C10.775 23.4729 10.47 23.2503 10.3216 23.0854C10.1815 22.9123 9.9919 22.6568 9.91772 22.5167C9.83529 22.3518 9.76935 21.9727 9.74462 21.544C9.71165 20.9341 9.72813 20.7857 9.90948 20.39C10.0166 20.1428 10.2722 19.7801 10.47 19.5822C10.6925 19.3679 10.9893 19.1783 11.2118 19.1124C11.4179 19.0547 11.6899 18.997 11.83 18.997ZM10.8656 20.0603C10.7915 20.1757 10.6678 20.4065 10.6019 20.5796C10.5277 20.7445 10.47 20.9423 10.47 21.0083C10.47 21.1154 10.6678 21.1319 11.7724 21.1237C12.4812 21.1154 13.1159 21.0989 13.1654 21.0824C13.2478 21.0577 13.2561 20.9835 13.1819 20.7445C13.1324 20.5714 12.9923 20.3076 12.8769 20.151C12.7532 19.9944 12.5307 19.813 12.3906 19.7553C12.2422 19.6976 11.9949 19.6482 11.8548 19.6482C11.7064 19.6564 11.4509 19.6976 11.2943 19.7553C11.1377 19.813 10.9481 19.9532 10.8656 20.0603Z" fill="white"/>
<path opacity="0.94" fill-rule="evenodd" clip-rule="evenodd" d="M35.7754 18.9146C36.0721 18.9064 36.4513 18.9476 36.6244 18.9888C36.7892 19.0382 37.0448 19.1701 37.1931 19.302C37.3333 19.4257 37.5228 19.6729 37.597 19.8543C37.7124 20.1181 37.7619 20.5302 37.8773 23.5223H37.4816C37.1025 23.5223 37.0942 23.5141 37.0942 23.2751C37.0942 23.1432 37.0777 23.0278 37.053 23.0278C37.0283 23.0278 36.8552 23.1349 36.6574 23.2751C36.4678 23.4069 36.1133 23.5553 35.8743 23.6048C35.5693 23.6625 35.322 23.6625 35.0088 23.5883C34.6956 23.5223 34.4813 23.4069 34.2175 23.1597C33.9125 22.8712 33.8548 22.764 33.8218 22.4096C33.7971 22.187 33.7971 21.8985 33.8301 21.7749C33.8548 21.643 34.0032 21.4122 34.1433 21.2473C34.2917 21.0907 34.5637 20.9011 34.745 20.8352C34.9264 20.7692 35.2973 20.7033 35.5693 20.6951C35.8413 20.6868 36.2947 20.7033 37.0942 20.8022L37.0448 20.5384C37.02 20.3901 36.9294 20.1758 36.8552 20.0604C36.7728 19.945 36.5832 19.7883 36.4266 19.7059C36.2122 19.5905 36.0227 19.5658 35.6105 19.5905C35.3138 19.6152 34.9264 19.6894 34.745 19.7636C34.5637 19.8378 34.3906 19.8708 34.3576 19.8378C34.3246 19.7966 34.2752 19.6482 34.2505 19.5081C34.2092 19.2361 34.2092 19.2361 34.7203 19.0795C35.0088 18.9888 35.4786 18.9146 35.7754 18.9146ZM34.6708 21.7172C34.5967 21.8243 34.539 22.0304 34.539 22.1623C34.5307 22.2942 34.6049 22.5002 34.6873 22.6156C34.7697 22.731 34.9676 22.8712 35.1242 22.9371C35.3138 23.0195 35.5446 23.036 35.8578 23.003C36.1051 22.9701 36.4018 22.8794 36.5172 22.797C36.6326 22.7063 36.7892 22.5497 36.8717 22.4425C36.9541 22.3354 37.0448 22.0798 37.0695 21.8738C37.1107 21.5605 37.0942 21.4946 36.9623 21.4287C36.8717 21.3957 36.4678 21.3462 36.0639 21.3297C35.5363 21.305 35.2478 21.3297 35.0665 21.4122C34.9181 21.4781 34.745 21.6182 34.6708 21.7172Z" fill="white"/>
<path opacity="0.94" d="M30.4423 18.997C30.294 19.0383 29.9808 19.2608 29.7582 19.4834C29.5274 19.7142 29.3213 19.8955 29.3048 19.8955C29.2801 19.8955 29.2636 19.6894 29.2636 19.4339L29.2554 18.9806L28.563 19.03C28.563 19.574 28.5712 20.6044 28.5795 21.6677L28.6042 23.6048H29.3461C29.3873 20.9259 29.3873 20.9094 29.6346 20.5137C29.7664 20.2912 29.9972 20.0439 30.1291 19.9615C30.261 19.879 30.5413 19.7884 30.7473 19.7471L31.1183 19.6894C31.1512 18.9229 31.143 18.9064 30.9287 18.9146C30.805 18.9146 30.5825 18.9558 30.4341 18.997H30.4423Z" fill="white"/>
<path opacity="0.94" fill-rule="evenodd" clip-rule="evenodd" d="M25.3893 18.9475C25.6613 18.964 26.024 19.0712 26.296 19.2113C26.5927 19.3679 26.8482 19.5822 27.0461 19.8543C27.2192 20.0851 27.4005 20.3983 27.4417 20.5549C27.4912 20.7115 27.5324 21.0824 27.5324 21.3792C27.5324 21.7419 27.4747 22.0386 27.3593 22.2859C27.2686 22.492 27.0543 22.7969 26.8894 22.9783C26.7246 23.1514 26.4031 23.3822 26.1723 23.4893C25.8591 23.6377 25.6201 23.6872 25.1832 23.6872C24.7546 23.6872 24.499 23.6377 24.194 23.4976C23.955 23.3822 23.6335 23.1349 23.4275 22.8959C23.2379 22.6733 23.0236 22.3271 22.9576 22.121C22.8834 21.915 22.834 21.5523 22.834 21.3132C22.834 21.0824 22.9082 20.6868 22.9988 20.456C23.0978 20.184 23.2956 19.8872 23.5099 19.6812C23.7077 19.4998 23.9385 19.2937 24.0209 19.2278C24.1116 19.1701 24.3507 19.0629 24.5567 19.0135C24.7628 18.9558 25.142 18.9228 25.3893 18.9475ZM24.2105 19.9202C24.0869 20.0026 23.8973 20.2664 23.7737 20.5384C23.6006 20.9093 23.5594 21.0989 23.5923 21.4204C23.6088 21.6512 23.6995 21.9809 23.7902 22.154C23.8726 22.3353 24.0869 22.5991 24.26 22.731C24.5485 22.9618 24.6309 22.9865 25.1749 22.9865C25.7107 22.9865 25.8096 22.9618 26.1229 22.7392C26.3619 22.5661 26.5185 22.3601 26.6422 22.0798C26.774 21.7666 26.7988 21.5523 26.774 21.1731C26.7493 20.8434 26.6751 20.5714 26.535 20.3571C26.4278 20.184 26.1888 19.9532 26.0075 19.846C25.8261 19.7389 25.5294 19.6399 25.348 19.6152C25.1667 19.5822 24.8864 19.6152 24.7298 19.6729C24.5732 19.7306 24.3424 19.8378 24.2188 19.9202H24.2105Z" fill="white"/>
<path opacity="0.94" d="M64.5674 18.8898C64.5426 18.964 64.5426 19.3432 64.5674 19.7306C64.6003 20.118 64.6251 21.0907 64.6251 21.8902V23.3574H65.3669C65.3669 21.2143 65.3504 20.1757 65.334 19.6647L65.301 18.7415C64.7157 18.7415 64.6086 18.7827 64.5674 18.8816V18.8898Z" fill="white"/>
<path opacity="0.94" d="M55.4838 18.964C55.1706 19.1206 54.9892 19.2855 54.8821 19.4833C54.7996 19.6399 54.7337 19.9284 54.7337 20.1263C54.7337 20.4148 54.7832 20.5302 55.0387 20.8022C55.3025 21.0824 55.4838 21.1813 56.1762 21.4039C56.6295 21.544 57.0664 21.7171 57.1406 21.7913C57.2148 21.8573 57.289 21.9727 57.2972 22.0386C57.3055 22.1045 57.3055 22.2447 57.2972 22.3518C57.289 22.459 57.1818 22.5991 57.017 22.7063C56.8109 22.8299 56.646 22.8629 56.2998 22.8464C56.0196 22.8299 55.6569 22.7227 55.3519 22.5826L54.8573 22.3436C54.6348 22.6486 54.5688 22.7887 54.5688 22.8464C54.5688 22.8958 54.7996 23.0525 55.0799 23.1926C55.3766 23.3245 55.8135 23.4564 56.0938 23.4893C56.3823 23.5141 56.7367 23.5058 56.9345 23.4481C57.1324 23.3987 57.4044 23.2585 57.5445 23.1349C57.6929 23.003 57.8577 22.8052 57.9154 22.6815C57.9814 22.5496 58.0308 22.3106 58.0308 22.1457C58.0308 21.9726 57.9566 21.7089 57.866 21.5688C57.7753 21.4204 57.5775 21.2226 57.4291 21.1319C57.289 21.0412 56.8686 20.8681 56.5059 20.7527C56.1432 20.6373 55.7558 20.4807 55.6569 20.4065C55.525 20.3158 55.4591 20.184 55.4591 20.0191C55.4591 19.8542 55.5305 19.7114 55.6734 19.5905C55.83 19.4503 55.9866 19.4009 56.2751 19.4009C56.4977 19.4009 56.8851 19.4833 57.1406 19.5905L57.6187 19.7718C57.8083 19.4833 57.866 19.3679 57.866 19.3185C57.866 19.2772 57.7835 19.1866 57.6764 19.1206C57.5775 19.0629 57.289 18.9475 57.0417 18.8733C56.7944 18.7992 56.44 18.7415 56.2586 18.7415C56.0608 18.7415 55.7476 18.8321 55.4838 18.964Z" fill="white"/>
<path opacity="0.94" fill-rule="evenodd" clip-rule="evenodd" d="M51.684 18.7827C51.9313 18.8075 52.327 18.9064 52.5495 19.0218C52.7803 19.1289 53.0853 19.3597 53.2419 19.5411C53.3985 19.7142 53.5964 20.0192 53.687 20.2252C53.7942 20.4725 53.8519 20.7775 53.8519 21.1319C53.8519 21.5111 53.7942 21.7914 53.6705 22.0799C53.5634 22.3024 53.4068 22.5827 53.3161 22.6981C53.2254 22.8135 53.0111 23.0031 52.8463 23.1185C52.6814 23.2421 52.4011 23.3822 52.2198 23.4399C52.0385 23.4976 51.684 23.5471 51.4367 23.5471C51.1647 23.5388 50.8185 23.4729 50.5712 23.3657C50.3404 23.2668 50.0355 23.069 49.8871 22.9206C49.7305 22.7723 49.5162 22.4755 49.4008 22.2447C49.2854 22.0139 49.17 21.6265 49.1452 21.3792C49.1205 21.099 49.1535 20.7528 49.2359 20.4725C49.3183 20.1758 49.4832 19.879 49.7222 19.6153C49.9201 19.3927 50.225 19.1372 50.4064 19.0465C50.5877 18.9558 50.8515 18.8487 50.9834 18.8157C51.1153 18.7745 51.4367 18.7662 51.684 18.7827ZM50.7361 19.6235C50.6454 19.673 50.4476 19.8461 50.2992 20.0109C50.1591 20.1758 49.9942 20.4643 49.9448 20.6621C49.8953 20.8517 49.8788 21.1649 49.9036 21.3627C49.9283 21.5523 50.0272 21.8491 50.1096 22.0222C50.1921 22.187 50.3322 22.3931 50.4146 22.4673C50.5053 22.5415 50.7114 22.6651 50.8762 22.731C51.0493 22.8052 51.3461 22.8629 51.5357 22.8629C51.7335 22.8629 52.0467 22.7887 52.2363 22.6981C52.4588 22.5909 52.6732 22.4013 52.8133 22.187C53.0194 21.882 53.0441 21.7666 53.0441 21.1732C53.0441 20.5797 53.0194 20.4643 52.8133 20.1593C52.6896 19.9697 52.4506 19.7389 52.2775 19.6565C52.1126 19.574 51.8406 19.4834 51.684 19.4586C51.5274 19.4339 51.2801 19.4422 51.1482 19.4751C51.0164 19.5081 50.8268 19.574 50.7361 19.6235Z" fill="white"/>
<path opacity="0.94" fill-rule="evenodd" clip-rule="evenodd" d="M71.7553 18.6673C71.9861 18.659 72.2994 18.692 72.456 18.7415C72.6126 18.7827 72.8763 18.8981 73.033 19.0052C73.1978 19.1124 73.4121 19.3679 73.5275 19.607C73.7254 20.0026 73.7336 20.0768 73.7336 23.3162L73.3792 23.341C73.033 23.3574 73.033 23.3575 73.033 23.069C73.033 22.9123 73.0165 22.7805 72.9917 22.7805C72.967 22.7805 72.8104 22.8876 72.6373 23.0277C72.4725 23.1596 72.1427 23.3162 71.9119 23.3657C71.6729 23.4152 71.3267 23.4399 71.1289 23.4069C70.931 23.3822 70.6013 23.2503 70.3953 23.1267C70.1727 22.9865 69.9666 22.7805 69.8842 22.5909C69.8018 22.426 69.7358 22.1293 69.7358 21.9397C69.7441 21.7419 69.8183 21.4534 69.9089 21.2967C69.9914 21.1401 70.2222 20.9093 70.42 20.7857C70.6096 20.6538 70.931 20.5302 71.1371 20.5054C71.3432 20.4725 71.7883 20.4725 72.1263 20.4889C72.4642 20.5137 72.8022 20.5466 72.8681 20.5631C72.967 20.5879 72.9835 20.5302 72.967 20.3076C72.9588 20.151 72.8763 19.9284 72.7939 19.813C72.7115 19.6976 72.5384 19.5575 72.4065 19.4916C72.2664 19.4174 71.9449 19.3762 71.6317 19.3762C71.3102 19.3844 70.9558 19.4421 70.7415 19.541C70.5107 19.6399 70.3623 19.6647 70.3128 19.607C70.2716 19.5575 70.2222 19.4256 70.1974 19.302C70.1645 19.1371 70.1892 19.0465 70.2963 18.997C70.3705 18.9558 70.6425 18.8651 70.8898 18.7909C71.1371 18.725 71.5328 18.6673 71.7553 18.6673ZM70.659 21.3957C70.6013 21.4534 70.5272 21.6594 70.4942 21.8408C70.4365 22.1622 70.453 22.2035 70.7497 22.4837C71.03 22.764 71.0877 22.7805 71.574 22.7805C71.9532 22.7805 72.1757 22.731 72.4148 22.5909C72.6043 22.4837 72.8104 22.2859 72.8846 22.121C72.967 21.9644 73.033 21.7089 73.033 21.5688C73.033 21.3792 72.9835 21.272 72.8681 21.2143C72.7774 21.1649 72.4148 21.1154 72.0686 21.0907C71.607 21.0577 71.3349 21.0824 71.0959 21.1731C70.9146 21.239 70.7167 21.3462 70.659 21.3957Z" fill="white"/>
<path opacity="0.94" fill-rule="evenodd" clip-rule="evenodd" d="M61.8718 18.758C62.0697 18.791 62.3334 18.8734 62.4571 18.9393C62.589 19.0053 62.828 19.2031 62.9929 19.3762C63.1577 19.5493 63.372 19.8543 63.4627 20.0604C63.5863 20.3324 63.6358 20.6044 63.6358 21.0907C63.6358 21.61 63.5946 21.8408 63.438 22.1623C63.3391 22.3931 63.1247 22.6981 62.9681 22.8464C62.8115 23.0031 62.5395 23.2009 62.3582 23.2998C62.1191 23.4234 61.8718 23.4729 61.4927 23.4729C61.1382 23.4729 60.858 23.4234 60.6684 23.3245C60.5118 23.2421 60.2562 23.0608 59.8441 22.6569V24.8412H59.1022L59.094 22.2694C59.0858 20.8517 59.0775 19.5081 59.061 18.8652L59.7617 18.8239V19.1949C59.7617 19.4009 59.7782 19.5658 59.8029 19.5658C59.8276 19.5658 59.9348 19.4669 60.0337 19.3432C60.1408 19.2114 60.3716 19.0383 60.553 18.9558C60.7261 18.8652 61.0146 18.7662 61.1877 18.7415C61.3608 18.7168 61.6658 18.725 61.8718 18.758ZM60.3057 19.8048C60.2233 19.879 60.0914 20.0686 60.009 20.2252C59.9348 20.3818 59.8441 20.6456 59.8111 20.8022C59.7864 20.9588 59.8029 21.2968 59.8606 21.5441C59.9183 21.8408 60.0419 22.0963 60.2068 22.2777C60.3469 22.4343 60.586 22.6074 60.7261 22.6733C60.8745 22.731 61.1794 22.7805 61.4102 22.7805C61.6328 22.7805 61.9213 22.731 62.0449 22.6651C62.1768 22.6074 62.3664 22.4508 62.4818 22.3189C62.5972 22.187 62.7456 21.9315 62.8033 21.7501C62.8692 21.5606 62.9022 21.2061 62.8857 20.9176C62.861 20.5467 62.795 20.3324 62.6219 20.0769C62.4983 19.879 62.2592 19.6565 62.0697 19.5658C61.8718 19.4669 61.5833 19.4009 61.3443 19.4009C61.13 19.4092 60.8415 19.4669 60.7096 19.5411C60.5777 19.607 60.3964 19.7307 60.3057 19.8048Z" fill="white"/>
<path opacity="0.94" d="M2.95239 17.5628L2.63916 17.5875C2.66389 21.3875 2.68037 22.7805 2.69686 23.1349L2.72159 23.7696L3.42223 23.7284C3.35628 19.8048 3.36453 18.9888 3.42223 18.9888C3.46344 18.997 3.96625 19.6812 4.53501 20.5137C5.10376 21.3545 5.58184 22.0387 5.60657 22.0387C5.6313 22.0469 6.10938 21.3545 6.67814 20.5137C7.24689 19.673 7.72497 18.9806 7.7497 18.9888C7.77443 18.9888 7.79916 20.0356 7.81564 21.3133C7.83213 22.5992 7.85686 23.6625 7.87334 23.6872C7.88983 23.7119 8.04644 23.7202 8.21954 23.7202L8.53277 23.7037V17.5463C8.02171 17.5133 7.83213 17.5381 7.79091 17.5793C7.7497 17.6205 7.24689 18.3624 6.67814 19.2278C6.10938 20.0933 5.6313 20.8022 5.60657 20.8022C5.58184 20.794 5.06255 20.0521 4.45258 19.1454C3.84261 18.2387 3.32331 17.5051 3.29858 17.5133C3.27386 17.5216 3.11724 17.5463 2.94414 17.5628H2.95239Z" fill="white"/>
<path opacity="0.94" d="M66.9329 18.082V18.7415H66.2734C66.2734 19.3927 66.2817 19.4009 66.5867 19.4256L66.8916 19.4421C66.9741 22.5414 66.9906 22.7063 67.1472 22.9206C67.2378 23.0442 67.4439 23.2173 67.6005 23.2915C67.7571 23.3739 68.0209 23.4399 68.194 23.4399C68.3589 23.4399 68.6309 23.3822 68.7875 23.3162C69.0348 23.2091 69.076 23.1514 69.076 22.9041C69.076 22.6321 69.0677 22.6156 68.8452 22.6733C68.7216 22.7063 68.4743 22.731 68.2929 22.7228C68.0456 22.7145 67.922 22.6651 67.8148 22.5249C67.683 22.3518 67.6665 22.1458 67.6747 20.8599V19.4009H69.076V18.7415H67.6747V17.4226H66.9329V18.082Z" fill="white"/>
<path opacity="0.94" d="M43.342 17.3155L43.0288 17.3402L43.07 23.4811H43.8119V20.761L47.2326 20.7198L47.2739 23.4811L47.9745 23.5223V17.2578H47.2326V19.9367C44.6444 20.0191 43.8696 20.0274 43.8366 20.0109C43.7954 19.9944 43.7707 19.3844 43.7789 18.6673C43.7871 17.9419 43.7542 17.3402 43.7212 17.3237C43.68 17.3072 43.5069 17.3072 43.342 17.3155Z" fill="white"/>
<path opacity="0.94" d="M31.9834 17.67V18.0822L32.7666 18.041L32.7831 17.2578H31.9834V17.67Z" fill="white"/>
<path opacity="0.94" d="M39.0723 20.3076V23.5223H39.8141V17.0929H39.0723V20.3076Z" fill="white"/>
<path opacity="0.94" d="M64.5425 17.4227V17.835H65.3669V17.0105H64.5425V17.4227Z" fill="white"/>
<path opacity="0.94" d="M75.0112 20.0603C75.0112 21.8243 75.036 23.2915 75.0772 23.308C75.1101 23.3245 75.275 23.3245 75.4481 23.308L75.7531 23.275V16.8456H75.0112V20.0603Z" fill="white"/>
<path opacity="0.94" fill-rule="evenodd" clip-rule="evenodd" d="M5.42548 3.73964C7.2389 3.73964 8.11264 3.77261 8.4918 3.85504C8.78855 3.91273 9.19244 4.05286 9.39851 4.15178C9.60458 4.25069 9.9343 4.47325 10.1321 4.6381C10.3299 4.80296 10.5772 5.08322 10.6844 5.26456C10.7915 5.4459 10.9399 5.80034 11.0141 6.04763C11.113 6.37734 11.1377 6.69881 11.113 7.24284C11.08 7.85281 11.0306 8.0836 10.8245 8.52047C10.6844 8.81722 10.4289 9.18814 10.2475 9.34476C10.0744 9.50961 9.74471 9.74866 9.52215 9.88054C9.29136 10.0124 9.10177 10.1196 9.08529 10.1196C9.07704 10.1278 9.60458 10.9027 11.4592 13.5898L10.2393 13.631C9.57161 13.6558 8.98637 13.664 8.94516 13.6475C8.90394 13.631 8.39289 12.9304 6.79379 10.54L5.11225 10.4988L5.07104 13.6722L2.92791 13.7217L2.85372 8.80897C2.81251 6.10533 2.80427 3.85504 2.83724 3.81382C2.87021 3.77261 3.95826 3.73964 5.42548 3.73964ZM5.01334 7.17689C5.02983 8.18252 5.05455 8.52047 5.13698 8.52047C5.18644 8.52872 5.81289 8.52872 6.51353 8.52047C7.65928 8.51223 7.83238 8.49575 8.15385 8.33089C8.35992 8.23198 8.59072 8.05888 8.68139 7.94348C8.76382 7.82808 8.85449 7.55606 8.87922 7.32526C8.91219 7.01204 8.88746 6.82245 8.74733 6.51747C8.61545 6.22073 8.4918 6.08884 8.22803 5.94871C7.91481 5.78386 7.72522 5.75913 6.51353 5.7344C5.76344 5.71791 5.1205 5.7344 5.07928 5.76737C5.03807 5.80034 5.0051 6.43504 5.01334 7.17689Z" fill="white"/>
<path opacity="0.94" d="M25.4139 3.64887C25.3809 3.66536 25.3645 5.28095 25.3727 7.2345C25.3809 9.18805 25.4139 11.4054 25.4469 12.172L25.5128 13.5485H27.6148C27.5818 8.69348 27.59 7.28396 27.6148 7.28396C27.6395 7.27572 28.2659 8.19067 29.016 9.30345C29.7661 10.4162 30.3761 11.3312 30.3761 11.3312C30.3761 11.3312 30.9861 10.3915 31.7362 9.24575L33.0962 7.16032C33.1704 11.4383 33.2034 12.8808 33.2116 13.1199L33.2199 13.5485L35.3218 13.5073V3.6159H32.9396C31.0438 6.68223 30.4832 7.61367 30.4668 7.65489C30.4503 7.70434 30.3843 7.67961 30.3102 7.61367C30.2442 7.54773 29.6837 6.67399 29.0572 5.67661C28.4308 4.67923 27.862 3.79724 27.7879 3.71482C27.6725 3.57469 27.5406 3.56644 26.5597 3.59117C25.9579 3.59942 25.4386 3.63239 25.4139 3.64887Z" fill="white"/>
<path opacity="0.94" fill-rule="evenodd" clip-rule="evenodd" d="M19.0754 3.6159L21.202 8.54511C22.3725 11.2488 23.3204 13.4826 23.3039 13.499C23.2957 13.5238 22.7929 13.5485 21.0701 13.5897L20.1552 11.3971L15.9596 11.4466L15.1023 13.5897L13.9813 13.6144C13.1158 13.6227 12.8685 13.6062 12.8933 13.532C12.9097 13.4743 13.8412 11.2405 14.9622 8.5616C16.0832 5.88268 17.0147 3.66536 17.0394 3.63238C17.0559 3.59941 17.5257 3.58293 19.0754 3.6159ZM16.8168 9.36939C16.8168 9.40236 17.3691 9.42709 18.0533 9.42709C18.7292 9.42709 19.2897 9.40236 19.2897 9.36115C19.2897 9.32818 19.0341 8.64402 18.7209 7.84447C18.3995 7.03667 18.111 6.37725 18.0615 6.37725C18.0203 6.37725 17.7235 7.03667 17.4021 7.84447C17.0806 8.64402 16.8168 9.32818 16.8168 9.36115V9.36939Z" fill="white"/>
<path opacity="0.94" d="M50.1177 8.43799V13.3837H52.3432V3.49229H50.1177V8.43799Z" fill="white"/>
<path opacity="0.94" fill-rule="evenodd" clip-rule="evenodd" d="M42.6663 3.40985C43.4741 3.40985 43.6225 3.42634 43.6967 3.55822C43.7462 3.63241 44.727 5.86621 45.8728 8.5204C47.0185 11.1746 47.9417 13.3672 47.9253 13.4084C47.9088 13.4414 47.406 13.4661 46.8207 13.4661C45.8893 13.4661 45.7409 13.4496 45.6585 13.3177C45.609 13.2435 45.3947 12.749 44.7847 11.2817L40.5974 11.2323L39.6907 13.4743L38.5944 13.4661C38.0009 13.4661 37.5063 13.4414 37.5063 13.4002C37.5063 13.3672 38.4213 11.1581 39.5423 8.47919C40.6551 5.80027 41.603 3.56646 41.6525 3.50877C41.7019 3.44282 42.0152 3.40985 42.6663 3.40985ZM41.9327 7.90219L41.397 9.22104C43.2763 9.25401 43.8451 9.25401 43.878 9.24577C43.911 9.22929 43.6637 8.56986 43.334 7.77031C43.0125 6.97075 42.724 6.2866 42.6911 6.25363C42.6663 6.22065 42.6086 6.27835 42.5592 6.38551C42.5097 6.49267 42.2295 7.17682 41.9327 7.90219Z" fill="white"/>
<path opacity="0.94" d="M67.1391 3.42631C67.1144 3.48401 67.1062 5.71781 67.1144 8.39673L67.1391 13.26L69.3235 13.3012V9.34466C71.4007 9.34466 72.2909 9.31993 72.6453 9.28696L73.28 9.22101C73.28 10.1772 73.3048 11.1004 73.346 11.8834L73.4037 13.3012C75.0852 13.3012 75.5138 13.2682 75.5303 13.2188C75.5386 13.1776 75.5386 10.9273 75.5303 8.23188L75.5056 3.32739H73.28V7.28395H69.3235L69.2823 3.36861C67.4359 3.32739 67.1721 3.35212 67.1391 3.42631Z" fill="white"/>
<path opacity="0.94" fill-rule="evenodd" clip-rule="evenodd" d="M60.7674 3.36865L62.9023 8.31435C64.0728 11.0345 65.029 13.2683 65.0207 13.2765C65.0042 13.2848 64.4932 13.3013 62.7704 13.326L61.8637 11.1581H57.6599L56.7944 13.3837H55.6816C55.0717 13.3837 54.5688 13.359 54.5688 13.3177C54.5688 13.2848 55.4838 11.0675 56.6048 8.39678C57.7258 5.71786 58.6738 3.48405 58.715 3.42635C58.7727 3.35217 59.0529 3.32744 60.7674 3.36865ZM58.987 7.84451L58.443 9.17984C60.4212 9.17984 60.9982 9.15512 60.9982 9.12215C60.9982 9.08093 60.7345 8.4215 60.413 7.65492C60.0915 6.88834 59.803 6.22067 59.7701 6.17946C59.7453 6.13824 59.6794 6.19594 59.6217 6.3031C59.5722 6.41026 59.2837 7.10265 58.987 7.84451Z" fill="white"/>
</svg>
