<svg width="18" height="18" viewBox="0 0 18 18" fill="none" xmlns="http://www.w3.org/2000/svg">
<g clip-path="url(#clip0_1086_646)">
<path d="M17.4532 7.06424C16.2899 5.16974 13.6439 1.99124 8.99992 1.99124C4.35592 1.99124 1.70992 5.16974 0.546666 7.06424C0.187062 7.64587 -0.00341797 8.31617 -0.00341797 8.99999C-0.00341797 9.68381 0.187062 10.3541 0.546666 10.9357C1.70992 12.8302 4.35592 16.0087 8.99992 16.0087C13.6439 16.0087 16.2899 12.8302 17.4532 10.9357C17.8128 10.3541 18.0033 9.68381 18.0033 8.99999C18.0033 8.31617 17.8128 7.64587 17.4532 7.06424ZM16.1744 10.1505C15.1754 11.775 12.9142 14.5087 8.99992 14.5087C5.08567 14.5087 2.82442 11.775 1.82542 10.1505C1.61177 9.80478 1.4986 9.4064 1.4986 8.99999C1.4986 8.59359 1.61177 8.19521 1.82542 7.84949C2.82442 6.22499 5.08567 3.49124 8.99992 3.49124C12.9142 3.49124 15.1754 6.22199 16.1744 7.84949C16.3881 8.19521 16.5012 8.59359 16.5012 8.99999C16.5012 9.4064 16.3881 9.80478 16.1744 10.1505Z" fill="black"/>
<path d="M9 5.25C8.25832 5.25 7.5333 5.46993 6.91661 5.88199C6.29993 6.29404 5.81928 6.87971 5.53545 7.56494C5.25162 8.25016 5.17736 9.00416 5.32206 9.73159C5.46675 10.459 5.8239 11.1272 6.34835 11.6517C6.8728 12.1761 7.54098 12.5333 8.26841 12.6779C8.99584 12.8226 9.74984 12.7484 10.4351 12.4645C11.1203 12.1807 11.706 11.7001 12.118 11.0834C12.5301 10.4667 12.75 9.74168 12.75 9C12.7488 8.0058 12.3533 7.05267 11.6503 6.34966C10.9473 5.64666 9.9942 5.25119 9 5.25ZM9 11.25C8.55499 11.25 8.11998 11.118 7.74997 10.8708C7.37996 10.6236 7.09157 10.2722 6.92127 9.86104C6.75098 9.4499 6.70642 8.9975 6.79323 8.56105C6.88005 8.12459 7.09434 7.72368 7.40901 7.40901C7.72368 7.09434 8.12459 6.88005 8.56105 6.79323C8.99751 6.70642 9.44991 6.75097 9.86104 6.92127C10.2722 7.09157 10.6236 7.37996 10.8708 7.74997C11.118 8.11998 11.25 8.55499 11.25 9C11.25 9.59674 11.0129 10.169 10.591 10.591C10.169 11.0129 9.59674 11.25 9 11.25Z" fill="black"/>
</g>
<defs>
<clipPath id="clip0_1086_646">
<rect width="18" height="18" fill="white"/>
</clipPath>
</defs>
</svg>
