<svg width="13" height="13" viewBox="0 0 13 13" fill="none" xmlns="http://www.w3.org/2000/svg">
<path d="M10.2917 1.08334H2.70833C1.21333 1.08334 0 2.29668 0 3.79168V9.20834C0 10.7033 1.21333 11.9167 2.70833 11.9167H10.2917C11.7867 11.9167 13 10.7033 13 9.20834V3.79168C13 2.29668 11.7867 1.08334 10.2917 1.08334ZM2.70833 2.16668H10.2917C11.1854 2.16668 11.9167 2.89793 11.9167 3.79168H1.08333C1.08333 2.89793 1.81458 2.16668 2.70833 2.16668ZM10.2917 10.8333H2.70833C1.81458 10.8333 1.08333 10.1021 1.08333 9.20834V4.87501H11.9167V9.20834C11.9167 10.1021 11.1854 10.8333 10.2917 10.8333ZM5.41667 6.50001C5.41667 6.79793 5.17292 7.04168 4.875 7.04168H4.33333V9.20834C4.33333 9.50626 4.08958 9.75001 3.79167 9.75001C3.49375 9.75001 3.25 9.50626 3.25 9.20834V7.04168H2.70833C2.41042 7.04168 2.16667 6.79793 2.16667 6.50001C2.16667 6.20209 2.41042 5.95834 2.70833 5.95834H4.875C5.17292 5.95834 5.41667 6.20209 5.41667 6.50001ZM10.8333 6.50001C10.8333 6.79793 10.5896 7.04168 10.2917 7.04168H7.04167C6.74375 7.04168 6.5 6.79793 6.5 6.50001C6.5 6.20209 6.74375 5.95834 7.04167 5.95834H10.2917C10.5896 5.95834 10.8333 6.20209 10.8333 6.50001ZM10.8333 8.66668C10.8333 8.96459 10.5896 9.20834 10.2917 9.20834H7.04167C6.74375 9.20834 6.5 8.96459 6.5 8.66668C6.5 8.36876 6.74375 8.12501 7.04167 8.12501H10.2917C10.5896 8.12501 10.8333 8.36876 10.8333 8.66668Z" fill="white" fill-opacity="0.8"/>
</svg>
